<?xml version="1.0" encoding="utf-8"?>
<!-- Generator: Adobe Illustrator 16.0.3, SVG Export Plug-In . SVG Version: 6.00 Build 0)  -->
<!DOCTYPE svg PUBLIC "-//W3C//DTD SVG 1.1//EN" "http://www.w3.org/Graphics/SVG/1.1/DTD/svg11.dtd">
<svg version="1.1" id="Layer_1" xmlns="http://www.w3.org/2000/svg" xmlns:xlink="http://www.w3.org/1999/xlink" x="0px" y="0px"
	 width="512px" height="512px" viewBox="0 0 512 512" enable-background="new 0 0 512 512" xml:space="preserve">
<circle id="background_2_" fill="#00B0FF" cx="256" cy="256" r="256"/>
<path fill="#E45456" d="M357.461,228.861l30.87-30.87c12.273-12.274,12.273-32.357,0-44.633L377.173,142.2l-7.439-7.438
	l-11.157-11.158c-12.273-12.273-32.358-12.273-44.633,0l-30.87,30.871c-12.274,12.273-12.274,32.358,0,44.632l11.157,11.158
	l7.438,7.439l11.158,11.158C325.103,241.135,345.186,241.135,357.461,228.861z"/>
<path fill="#E27676" d="M294.231,210.265l7.438,7.439c-1.268-1.267-2.396-2.621-3.401-4.036
	C296.854,212.66,295.499,211.532,294.231,210.265z"/>
<path fill="#E27676" d="M377.173,142.2l-7.439-7.438c1.267,1.267,2.396,2.622,3.401,4.038
	C374.552,139.805,375.906,140.934,377.173,142.2z"/>
<rect x="260.332" y="166.396" transform="matrix(0.7071 0.7071 -0.7071 0.7071 230.4144 -167.7212)" fill="#ECF0F0" width="114.665" height="55.755"/>
<rect x="239.289" y="201.488" transform="matrix(0.7071 0.7071 -0.7071 0.7071 235.1473 -156.826)" fill="#FBFFFF" width="135.178" height="7.89"/>
<rect x="250.445" y="190.329" transform="matrix(0.7071 0.7071 -0.7071 0.7071 230.5232 -167.9829)" fill="#FBFFFF" width="135.179" height="7.889"/>
<rect x="261.603" y="179.171" transform="matrix(0.7071 0.7071 -0.7071 0.7071 225.9009 -179.1415)" fill="#FBFFFF" width="135.18" height="7.89"/>
<polygon fill="#E3CB8F" points="199.761,386.563 219.475,366.85 182.279,329.655 145.086,292.462 125.374,312.175 114.463,397.472 
	"/>
<polygon fill="#5C5C5C" points="137.458,394.53 136.941,385.485 136.907,385.45 126.482,375.032 117.393,374.577 114.463,397.472 
	"/>
<polygon fill="#ECF0F0" points="328.45,257.872 309.853,239.276 291.257,220.68 272.659,202.082 254.063,183.485 125.374,312.175 
	157.359,317.382 162.566,349.368 194.555,354.575 199.761,386.563 "/>
<polygon fill="#1CA261" points="335.144,251.179 316.547,232.582 297.951,213.983 279.354,195.387 260.757,176.79 132.068,305.479 
	164.057,310.688 169.262,342.673 201.249,347.88 206.454,379.866 "/>
<path opacity="0.3" fill="#5D5D5D" enable-background="new    " d="M369.733,179.396L201.249,347.88l-6.694,6.695l-80.091,42.896
	l85.297-10.91l67.691-67.691l67.274-67.275l3.765,2.931l5.95-5.95l7.439,7.439l5.58-5.58l-7.439-7.438l5.578-5.58l7.44,7.439
	l5.578-5.578l-7.439-7.439l5.58-5.578l7.438,7.438l5.579-5.578l-7.439-7.439l5.58-5.579l-3.348-3.347l13.762-13.762
	c12.273-12.274,12.273-32.357,0-44.633l-11.158-11.16c-1.268-1.267-2.622-2.395-4.038-3.4
	C381.87,151.104,380.74,168.387,369.733,179.396z"/>
<path opacity="0.3" fill="#5D5D5D" enable-background="new    " d="M157.359,317.382l6.695-6.695l115.637-115.639
	c1.006,1.421,52.849-52.848,52.849-52.848c11.007-11.005,28.291-12.135,40.595-3.4c-1.006-1.416-2.135-2.771-3.401-4.038
	l-11.157-11.158c-12.273-12.273-32.358-12.273-44.633,0l-13.762,13.762l-3.347-3.347l-5.578,5.578l-7.068-7.066l-5.579,5.58
	l7.066,7.066l-5.579,5.578l-7.065-7.066l-5.58,5.58l7.065,7.066l-5.578,5.578l-7.065-7.066l-5.58,5.578l7.066,7.066l-5.95,5.952
	l3.347,3.347l-6.693,6.695L125.373,312.174l-10.911,85.297L157.359,317.382z"/>
</svg>
